<?xml version="1.0" standalone="no"?><!DOCTYPE svg PUBLIC "-//W3C//DTD SVG 1.1//EN" "http://www.w3.org/Graphics/SVG/1.1/DTD/svg11.dtd"><svg t="1547172840103" class="icon" style="" viewBox="0 0 1024 1024" version="1.1" xmlns="http://www.w3.org/2000/svg" p-id="2160" xmlns:xlink="http://www.w3.org/1999/xlink" width="32" height="32"><defs><style type="text/css"></style></defs><path d="M512 1024C229.233778 1024 0 794.766222 0 512 0 229.233778 229.233778 0 512 0c282.766222 0 512 229.233778 512 512C1024 794.766222 794.766222 1024 512 1024zM512 56.888889C261.034667 56.888889 56.888889 260.835556 56.888889 511.488 56.888889 762.168889 261.034667 967.111111 512 967.111111c250.965333 0 455.111111-204.942222 455.111111-455.623111C967.111111 260.835556 762.965333 56.888889 512 56.888889zM768 540.444444l-426.666667 0 140.288 135.025778c22.698667 22.641778-15.672889 61.525333-39.594667 37.660444L227.555556 512l214.471111-201.130667c23.608889-23.552 63.857778 16.668444 40.220444 40.220444L341.333333 483.555556l426.666667 0c19.683556 0 28.444444 8.817778 28.444444 28.444444C796.444444 531.626667 787.683556 540.444444 768 540.444444z" p-id="2161"></path></svg>